Coordinates
version=1
nRows=11
nColumns=40
inDegrees=yes

Units are S.I. units (second, meters, Newtons, ...)
Angles are in degrees.

endheader
time	pelvis_tilt	pelvis_list	pelvis_rotation	pelvis_tx	pelvis_ty	pelvis_tz	hip_flexion_r	hip_adduction_r	hip_rotation_r	knee_angle_r	knee_angle_r_beta	ankle_angle_r	subtalar_angle_r	mtp_angle_r	hip_flexion_l	hip_adduction_l	hip_rotation_l	knee_angle_l	knee_angle_l_beta	ankle_angle_l	subtalar_angle_l	mtp_angle_l	lumbar_extension	lumbar_bending	lumbar_rotation	arm_flex_r	arm_add_r	arm_rot_r	elbow_flex_r	pro_sup_r	wrist_flex_r	wrist_dev_r	arm_flex_l	arm_add_l	arm_rot_l	elbow_flex_l	pro_sup_l	wrist_flex_l	wrist_dev_l
     16.43128571	     -2.11160717	     -4.23900707	     -1.54529310	      1.01570756	      0.92344262	      0.39057012	     20.77852472	     -7.47535321	     -5.72942283	     59.17936519	     59.17936519	      8.29821628	    -18.92439037	     11.51624588	     14.11873969	     -1.13155901	     -3.81251147	     28.43267354	     28.43267354	     18.96838106	    -15.73712948	      5.61620232	     -9.52502175	      5.27814245	      2.89764197	      7.49517920	    -12.49281182	     -9.38180968	     27.90944398	     46.55643425	      0.00000000	      0.00000000	     20.24612729	    -12.20317822	     12.27292154	     39.85569906	     45.91959409	      0.00000000	      0.00000000
     16.45507143	     -2.05014104	     -4.44371893	     -2.17719410	      1.01373217	      0.92413824	      0.39073998	     22.04771860	     -6.78002179	     -5.21373955	     58.25362891	     58.25362891	      8.92811002	    -18.78069665	     11.02420359	     13.56956525	     -1.42759015	     -4.36274914	     28.05558680	     28.05558680	     19.10535623	    -15.65224712	      5.61336771	     -9.72958558	      5.54427181	      2.94309366	      4.61334717	    -12.56056724	     -9.34369216	     26.51058457	     46.58754840	      0.00000000	      0.00000000	     22.16440712	    -12.43359913	     11.24072469	     41.52933811	     46.06448607	      0.00000000	      0.00000000
     16.47885714	     -2.07160166	     -4.64626805	     -2.85233187	      1.01175915	      0.92505037	      0.39130529	     23.05222405	     -6.07684687	     -4.83145908	     56.22294987	     56.22294987	      8.69042441	    -18.58261074	      7.38609238	     12.99780288	     -1.76147535	     -5.03256474	     27.48043778	     27.48043778	     19.04955780	    -15.46136163	      5.23762263	     -9.89526586	      5.80427808	      2.36597314	      2.13366130	    -12.49940283	     -9.25612590	     25.86247437	     46.58568907	      0.00000000	      0.00000000	     23.03827284	    -12.65711408	      6.86876374	     44.72851915	     46.53577092	      0.00000000	      0.00000000
     16.50264286	     -2.14208319	     -4.86642233	     -3.57246171	      1.00973315	      0.92623350	      0.39241683	     23.91995376	     -5.21177306	     -4.35123111	     53.49625246	     53.49625246	      9.24132117	    -17.92247885	      6.29076400	     12.38926413	     -2.12821124	     -5.70294508	     26.75555236	     26.75555236	     19.03984421	    -15.26869413	      5.28287371	     -9.98820599	      6.02956303	      2.57659302	     -0.43635249	    -12.54714876	     -9.11847828	     24.78954833	     46.59828273	      0.00000000	      0.00000000	     24.90110032	    -12.97312396	      6.00294260	     46.31339894	     46.64879716	      0.00000000	      0.00000000
     16.52642857	     -2.33365615	     -5.02983398	     -4.30006422	      1.00777325	      0.92735374	      0.39375946	     24.37609815	     -4.59314531	     -4.31048385	     49.46903106	     49.46903106	      7.51597184	    -17.36457265	     -1.31810499	     11.80791108	     -2.45253640	     -6.46812400	     25.83316231	     25.83316231	     18.70431602	    -15.04020694	      4.55483613	     -9.99046486	      6.19253140	      2.12511621	     -2.98740728	    -12.56129554	     -8.57011654	     25.47222464	     46.50138412	      0.00000000	      0.00000000	     25.64313592	    -13.38769286	      2.45524219	     49.62474837	     46.98818307	      0.00000000	      0.00000000
     16.55021429	     -2.52629801	     -5.20528359	     -5.00537469	      1.00582599	      0.92859420	      0.39550133	     24.61107849	     -3.90699731	     -4.33766077	     44.99536915	     44.99536915	      6.80280288	    -15.82761480	     -4.98127544	     11.20051108	     -2.80114474	     -7.22431309	     24.88374382	     24.88374382	     18.46527422	    -14.73833219	      4.17107044	     -9.98805419	      6.31980886	      2.14072623	     -5.35275992	    -12.53514540	     -7.77590987	     25.54221506	     46.41627159	      0.00000000	      0.00000000	     26.96338437	    -13.82999138	      0.84404077	     51.93443138	     47.13492196	      0.00000000	      0.00000000
     16.57400000	     -2.80219150	     -5.37556651	     -5.74650685	      1.00396630	      0.92977370	      0.39767225	     24.71718433	     -3.18355392	     -4.46106172	     40.25549406	     40.25549406	      6.86823157	    -13.13343270	     -5.03417053	     10.63712108	     -3.15155399	     -7.94585930	     23.88212526	     23.88212526	     18.35122090	    -14.44606249	      4.26509912	     -9.82452427	      6.46619609	      2.22935303	     -7.24191225	    -12.47489872	     -7.66509160	     25.07843626	     46.40998551	      0.00000000	      0.00000000	     28.46596033	    -14.43992678	      0.28495208	     53.25951601	     47.20687100	      0.00000000	      0.00000000
     16.59778571	     -3.00585677	     -5.48428769	     -6.43611656	      1.00233969	      0.93083101	      0.40006503	     24.43322615	     -2.61436909	     -4.95705162	     35.19632931	     35.19632931	      6.55326851	     -9.70622252	     -4.95738249	      9.96574121	     -3.43632301	     -8.71415669	     22.85382151	     22.85382151	     18.21453555	    -14.03614684	      4.17880976	     -9.78292667	      6.50574093	      2.50458114	     -9.11656233	    -12.29730970	     -7.56449634	     24.97221995	     46.38744574	      0.00000000	      0.00000000	     29.83275392	    -14.88983230	     -0.48414294	     55.08112454	     47.30103050	      0.00000000	      0.00000000
     16.62157143	     -3.11878241	     -5.34118816	     -7.10935781	      1.00100501	      0.93153752	      0.40260127	     23.99260945	     -2.44213676	     -5.89286932	     30.36380273	     30.36380273	      5.98667872	     -5.29523917	     -4.78548201	      9.16913774	     -3.44697096	     -9.64689458	     21.76683043	     21.76683043	     17.93159377	    -13.51189636	      3.47193218	     -9.85638312	      6.24359879	      2.74963593	    -11.11958808	    -12.02628202	     -7.38180462	     26.02394522	     46.30365451	      0.00000000	      0.00000000	     30.76129229	    -15.22202550	     -2.06419864	     58.23067652	     47.46865294	      0.00000000	      0.00000000
     16.64535714	     -3.38880120	     -5.37151122	     -7.65363012	      0.99988060	      0.93184745	      0.40548663	     23.47913674	     -1.80344035	     -6.39683811	     25.57700882	     25.57700882	      4.92524353	     -2.24253462	     -3.55674886	      8.66495901	     -3.64583849	    -10.19438288	     20.94274469	     20.94274469	     17.81054917	    -13.29400945	      3.20981966	     -9.59465102	      6.24602543	      2.78912585	    -12.49413783	    -11.75323247	     -7.25750208	     26.20105755	     46.27117995	      0.00000000	      0.00000000	     31.80336465	    -15.72474364	     -2.79831716	     59.79682859	     47.55480516	      0.00000000	      0.00000000
     16.66914286	     -3.39671668	     -5.14797502	     -8.14785281	      0.99921951	      0.93191485	      0.40831569	     23.00677700	     -1.70975470	     -7.55168112	     22.02290051	     22.02290051	      4.79956505	      2.07443151	     -0.21440829	      7.79773020	     -3.53635200	    -10.97703902	     19.90924520	     19.90924520	     16.97605796	    -13.10839453	      0.93697485	     -9.74656550	      5.90618191	      2.39255384	    -14.25808599	    -11.75994331	     -6.14504136	     28.93873753	     46.04830178	      0.00000000	      0.00000000	     31.71369943	    -16.17935889	     -5.56455075	     64.25486416	     47.80448475	      0.00000000	      0.00000000
